# xmcd
#
# Track frame offsets:
#	150
#	19965
#	40088
#	54468
#	79906
#	103956
#	125665
#	148074
#	170736
#	187915
#
# Disc length: 2759 seconds
#
# Revision: 9
# Processed by: cddbd v1.5.2PL0 Copyright (c) Steve Scherf et al.
# Submitted via: EasyCDDAExtractor 15.3.0.1
#
DISCID=8e0ac50a
DTITLE=Enrique Iglesias - Cosas Del Amor
DYEAR=1998
DGENRE=Latin
TTITLE0=Nunca Te Olvidare
TTITLE1=Cosas Del Amor
TTITLE2=Esperanza
TTITLE3=Desnudo
TTITLE4=Contigo
TTITLE5=Alguien Como Tu
TTITLE6=Sirena
TTITLE7=Para De Jugar
TTITLE8=Dicen Por Ahi
TTITLE9=Ruleta Rusa
EXTD=
EXTT0=
EXTT1=
EXTT2=
EXTT3=
EXTT4=
EXTT5=
EXTT6=
EXTT7=
EXTT8=
EXTT9=
PLAYORDER=
